<svg width="21" height="15" viewBox="0 0 21 15" fill="none" xmlns="http://www.w3.org/2000/svg">
    <path fill-rule="evenodd" clip-rule="evenodd" d="M1.08838 14.3379C1.08838 14.3379 0.906516 7.09006 0.881716 5.70453C0.842449 4.06243 1.66498 3.68064 3.10958 3.46101C3.79778 3.35632 5.24652 3.14285 6.68492 2.93143L7.19332 1.13743C8.66685 0.203479 12.5439 0.316374 14.0836 1.03685L14.7243 3.03201C16.328 3.28653 17.9317 3.5349 18.5972 3.63137C19.4549 3.75248 20.1513 4.36827 20.1327 5.7148C20.1141 7.12701 20.0046 14.186 20.0046 14.186L1.08838 14.3379ZM3.77505 6.58716C2.72518 6.58716 2.67558 8.1718 3.79158 8.1718C4.81252 8.1718 4.81872 6.57895 3.77505 6.57895V6.58716ZM10.7067 4.5099C5.31058 4.5099 5.05018 12.6671 10.7976 12.6671C16.0366 12.6671 16.08 4.5099 10.7067 4.5099ZM2.23332 1.79427L4.78358 1.76758L5.01505 2.74053L2.02665 2.86779L2.23332 1.79427Z" fill="#FA522E"/>
</svg>
