<svg width="18" height="18" viewBox="0 0 18 18" fill="none" xmlns="http://www.w3.org/2000/svg">
<path fill-rule="evenodd" clip-rule="evenodd" d="M12.3053 17.6802H11.9343C11.894 16.1401 11.8431 13.9285 11.8155 12.0897L14.2876 12.041L14.7583 9.28706L11.8028 9.4989C11.8558 7.24916 12.2735 6.82548 13.7364 6.82548C14.1943 6.82548 14.665 6.82548 14.9767 6.82548V3.96141C14.1622 3.85385 13.341 3.805 12.5194 3.81524C9.50883 3.81524 8.56961 5.69425 8.56961 9.42052V9.70438L7.04947 9.80818L7.02827 12.1808L8.56325 12.1511C8.56325 14.1085 8.54629 16.1761 8.53993 17.6251C7.24452 17.5975 5.96608 17.57 4.93569 17.57C1.05371 17.57 0 15.2758 0 12.3587C0 9.4417 0.0572431 6.21538 0.0572431 5.10958C0.0572431 1.83242 1.50954 0.0127107 5.10954 0.0127107C6.44099 0.0127107 11.4488 0 13.1534 0C16.429 0 18 1.35154 18 5.30871C18 6.28529 17.9279 8.11347 17.9279 13.1828C17.9216 16.371 16.4141 17.6802 12.3053 17.6802Z" fill="black"/>
</svg>
