<svg width="18" height="18" viewBox="0 0 18 18" fill="none" xmlns="http://www.w3.org/2000/svg">
<path fill-rule="evenodd" clip-rule="evenodd" d="M8.99917 0C4.02941 0 0 4.0294 0 9.00028C0 12.9766 2.57853 16.3497 6.15488 17.5403C6.60517 17.6226 6.76927 17.3447 6.76927 17.106C6.76927 16.8928 6.76153 16.3265 6.75711 15.5756C4.25372 16.1193 3.72553 14.3689 3.72553 14.3689C3.31612 13.3297 2.72605 13.0529 2.72605 13.0529C1.9089 12.4943 2.78793 12.5054 2.78793 12.5054C3.69127 12.5694 4.16643 13.433 4.16643 13.433C4.96921 14.8082 6.27312 14.4109 6.78584 14.1811C6.86761 13.5993 7.09966 13.2026 7.35713 12.9777C5.35873 12.7507 3.25756 11.9783 3.25756 8.52954C3.25756 7.54719 3.6084 6.74385 4.18411 6.11455C4.09129 5.88692 3.78244 4.97197 4.27195 3.73271C4.27195 3.73271 5.02778 3.49071 6.74717 4.65539C7.46487 4.45594 8.23506 4.35593 9.00028 4.35262C9.76439 4.35593 10.5346 4.45594 11.2534 4.65539C12.9717 3.49071 13.7258 3.73271 13.7258 3.73271C14.217 4.97197 13.9082 5.88692 13.8153 6.11455C14.3922 6.74385 14.7408 7.54719 14.7408 8.52954C14.7408 11.9871 12.6363 12.7479 10.6313 12.9706C10.9545 13.2485 11.2423 13.7977 11.2423 14.6375C11.2423 15.8403 11.2313 16.811 11.2313 17.106C11.2313 17.3469 11.3932 17.6271 11.8501 17.5392C15.4237 16.3464 18 12.9755 18 9.00028C18 4.0294 13.97 0 8.99917 0Z" fill="#181717"/>
</svg>
