<svg width="15" height="85" viewBox="0 0 15 85" fill="none" xmlns="http://www.w3.org/2000/svg">
<path d="M8.41245 19.528C8.89779 19.528 9.27112 19.408 9.53245 19.168C9.79379 18.928 9.92445 18.608 9.92445 18.208C9.92445 17.984 9.91645 17.808 9.90045 17.68C9.88445 17.5573 9.86579 17.4587 9.84445 17.384L7.22045 17.384C7.14579 17.4747 7.07379 17.6053 7.00445 17.776C6.93512 17.9467 6.90045 18.1333 6.90045 18.336C6.90045 18.5493 6.93779 18.7307 7.01245 18.88C7.09245 19.0347 7.19912 19.16 7.33245 19.256C7.47112 19.352 7.63112 19.4213 7.81245 19.464C7.99912 19.5067 8.19912 19.528 8.41245 19.528ZM8.41245 20.304C8.09779 20.304 7.80712 20.2613 7.54045 20.176C7.27379 20.096 7.04445 19.976 6.85245 19.816C6.66045 19.656 6.51112 19.4587 6.40445 19.224C6.29779 18.9947 6.24445 18.7307 6.24445 18.432C6.24445 18.192 6.27645 17.9787 6.34045 17.792C6.40445 17.6107 6.46579 17.4747 6.52445 17.384L4.86045 17.384L4.86045 16.64L10.3725 16.64C10.4151 16.816 10.4605 17.0347 10.5085 17.296C10.5618 17.5627 10.5885 17.8693 10.5885 18.216C10.5885 18.536 10.5378 18.824 10.4365 19.08C10.3351 19.336 10.1911 19.5547 10.0045 19.736C9.81779 19.9173 9.58845 20.056 9.31645 20.152C9.04979 20.2533 8.74845 20.304 8.41245 20.304ZM8.42045 25.0229C8.08979 25.0229 7.79112 24.9749 7.52445 24.8789C7.25779 24.7829 7.02845 24.6469 6.83645 24.4709C6.64445 24.3003 6.49512 24.0949 6.38845 23.8549C6.28712 23.6149 6.23645 23.3536 6.23645 23.0709C6.23645 22.7883 6.28712 22.5269 6.38845 22.2869C6.49512 22.0469 6.64445 21.8389 6.83645 21.6629C7.02845 21.4923 7.25779 21.3589 7.52445 21.2629C7.79112 21.1669 8.08979 21.1189 8.42045 21.1189C8.74579 21.1189 9.04179 21.1669 9.30845 21.2629C9.58045 21.3589 9.81245 21.4923 10.0045 21.6629C10.1965 21.8389 10.3431 22.0469 10.4445 22.2869C10.5511 22.5269 10.6045 22.7883 10.6045 23.0709C10.6045 23.3536 10.5511 23.6149 10.4445 23.8549C10.3431 24.0949 10.1965 24.3003 10.0045 24.4709C9.81245 24.6469 9.58045 24.7829 9.30845 24.8789C9.04179 24.9749 8.74579 25.0229 8.42045 25.0229ZM8.42045 24.2469C8.88979 24.2469 9.26045 24.1403 9.53245 23.9269C9.80979 23.7189 9.94845 23.4336 9.94845 23.0709C9.94845 22.7083 9.80979 22.4203 9.53245 22.2069C9.26045 21.9989 8.88979 21.8949 8.42045 21.8949C7.95112 21.8949 7.57779 21.9989 7.30045 22.2069C7.02845 22.4203 6.89245 22.7083 6.89245 23.0709C6.89245 23.4336 7.02845 23.7189 7.30045 23.9269C7.57779 24.1403 7.95112 24.2469 8.42045 24.2469ZM6.24445 27.8777C6.24445 27.5417 6.29779 27.2457 6.40445 26.9897C6.51112 26.739 6.66045 26.5257 6.85245 26.3497C7.04445 26.179 7.27112 26.051 7.53245 25.9657C7.79912 25.8804 8.09245 25.8377 8.41245 25.8377C8.73245 25.8377 9.02579 25.883 9.29245 25.9737C9.55912 26.0697 9.78845 26.203 9.98045 26.3737C10.1778 26.5444 10.3298 26.7524 10.4365 26.9977C10.5485 27.2484 10.6045 27.5257 10.6045 27.8297C10.6045 28.0164 10.5885 28.203 10.5565 28.3897C10.5245 28.5764 10.4738 28.755 10.4045 28.9257L9.77245 28.7577C9.82579 28.6457 9.86845 28.515 9.90045 28.3657C9.93245 28.2217 9.94845 28.067 9.94845 27.9017C9.94845 27.4857 9.81779 27.1657 9.55645 26.9417C9.29512 26.723 8.91379 26.6137 8.41245 26.6137C8.18845 26.6137 7.98312 26.6377 7.79645 26.6857C7.60979 26.739 7.44979 26.819 7.31645 26.9257C7.18312 27.0377 7.07912 27.179 7.00445 27.3497C6.93512 27.5204 6.90045 27.7284 6.90045 27.9737C6.90045 28.171 6.91912 28.3497 6.95645 28.5097C6.99379 28.6697 7.03379 28.795 7.07645 28.8857L6.45245 28.9897C6.42579 28.947 6.39912 28.8857 6.37245 28.8057C6.35112 28.7257 6.33245 28.635 6.31645 28.5337C6.29512 28.4324 6.27912 28.323 6.26845 28.2057C6.25245 28.0937 6.24445 27.9844 6.24445 27.8777ZM10.5005 32.8416L9.87645 32.8416L9.87645 31.4896L6.34045 31.4896L6.34045 30.7456L9.87645 30.7456L9.87645 29.3936L10.5005 29.3936L10.5005 32.8416ZM9.05245 34.8043L9.05245 42.8043L8.42045 42.8043L8.42045 34.8043L9.05245 34.8043ZM10.7405 45.3846C10.8578 45.6886 11.0071 45.9846 11.1885 46.2726C11.3751 46.5606 11.6071 46.8246 11.8845 47.0646L11.8845 47.5926L6.34045 47.5926L6.34045 46.8486L10.8525 46.8486C10.7938 46.7846 10.7325 46.7046 10.6685 46.6086C10.6045 46.518 10.5431 46.4166 10.4845 46.3046C10.4258 46.198 10.3698 46.0833 10.3165 45.9606C10.2631 45.8433 10.2178 45.7286 10.1805 45.6166L10.7405 45.3846ZM9.66845 53.1643C8.56979 53.1643 7.73779 52.8896 7.17245 52.3402C6.61245 51.7962 6.32979 50.9856 6.32445 49.9082L6.94845 49.8842C6.94845 50.2202 6.98045 50.5216 7.04445 50.7882C7.10845 51.0602 7.20979 51.2976 7.34845 51.5002C7.49245 51.7029 7.67645 51.8709 7.90045 52.0042C8.12445 52.1429 8.39912 52.2442 8.72445 52.3082C8.66045 52.1696 8.60712 52.0122 8.56445 51.8362C8.52712 51.6602 8.50845 51.4789 8.50845 51.2922C8.50845 50.9776 8.55379 50.7109 8.64445 50.4922C8.74045 50.2736 8.86579 50.0949 9.02045 49.9562C9.18045 49.8176 9.36179 49.7162 9.56445 49.6522C9.77245 49.5936 9.98845 49.5642 10.2125 49.5642C10.4098 49.5642 10.6151 49.5989 10.8285 49.6682C11.0418 49.7376 11.2365 49.8416 11.4125 49.9802C11.5885 50.1242 11.7325 50.3056 11.8445 50.5242C11.9565 50.7429 12.0125 51.0016 12.0125 51.3002C12.0125 51.6043 11.9591 51.8709 11.8525 52.1003C11.7458 52.3349 11.5911 52.5296 11.3885 52.6842C11.1858 52.8442 10.9378 52.9643 10.6445 53.0443C10.3565 53.1243 10.0311 53.1643 9.66845 53.1643ZM9.11645 51.3722C9.11645 51.5589 9.13245 51.7349 9.16445 51.9002C9.20179 52.0656 9.25512 52.2256 9.32445 52.3802C9.38312 52.3856 9.43912 52.3882 9.49245 52.3882C9.55112 52.3882 9.60979 52.3882 9.66845 52.3882C9.89779 52.3882 10.1165 52.3722 10.3245 52.3403C10.5378 52.3083 10.7218 52.2496 10.8765 52.1642C11.0365 52.0843 11.1618 51.9749 11.2525 51.8362C11.3485 51.6976 11.3965 51.5216 11.3965 51.3083C11.3965 51.1323 11.3591 50.9829 11.2845 50.8602C11.2098 50.7376 11.1138 50.6362 10.9965 50.5562C10.8845 50.4762 10.7591 50.4176 10.6205 50.3802C10.4871 50.3482 10.3565 50.3322 10.2285 50.3322C9.86579 50.3322 9.58845 50.4176 9.39645 50.5882C9.20979 50.7642 9.11645 51.0256 9.11645 51.3722ZM9.11645 54.0719C10.0445 54.0719 10.7591 54.2345 11.2605 54.5599C11.7618 54.8905 12.0125 55.3465 12.0125 55.9279C12.0125 56.5092 11.7618 56.9625 11.2605 57.2879C10.7591 57.6185 10.0445 57.7839 9.11645 57.7839C8.18845 57.7839 7.47379 57.6185 6.97245 57.2879C6.47112 56.9625 6.22045 56.5092 6.22045 55.9279C6.22045 55.3465 6.47112 54.8905 6.97245 54.5599C7.47379 54.2345 8.18845 54.0719 9.11645 54.0719ZM9.11645 56.9999C9.42045 56.9999 9.70845 56.9812 9.98045 56.9439C10.2525 56.9119 10.4898 56.8532 10.6925 56.7679C10.8951 56.6879 11.0551 56.5785 11.1725 56.4399C11.2951 56.3012 11.3565 56.1305 11.3565 55.9279C11.3565 55.7252 11.2951 55.5545 11.1725 55.4159C11.0551 55.2772 10.8951 55.1652 10.6925 55.0799C10.4898 54.9999 10.2525 54.9412 9.98045 54.9039C9.70845 54.8719 9.42045 54.8559 9.11645 54.8559C8.81245 54.8559 8.52445 54.8719 8.25245 54.9039C7.98045 54.9412 7.74312 54.9999 7.54045 55.0799C7.33779 55.1652 7.17512 55.2772 7.05245 55.4159C6.93512 55.5545 6.87645 55.7252 6.87645 55.9279C6.87645 56.1305 6.93512 56.3012 7.05245 56.4399C7.17512 56.5785 7.33779 56.6879 7.54045 56.7679C7.74312 56.8532 7.98045 56.9119 8.25245 56.9439C8.52445 56.9812 8.81245 56.9999 9.11645 56.9999ZM6.24445 62.4871C6.24445 62.1511 6.29779 61.8551 6.40445 61.5991C6.51112 61.3484 6.66045 61.1351 6.85245 60.9591C7.04445 60.7884 7.27112 60.6604 7.53245 60.5751C7.79912 60.4897 8.09245 60.4471 8.41245 60.4471C8.73245 60.4471 9.02579 60.4924 9.29245 60.5831C9.55912 60.6791 9.78845 60.8124 9.98045 60.9831C10.1778 61.1537 10.3298 61.3617 10.4365 61.6071C10.5485 61.8577 10.6045 62.1351 10.6045 62.4391C10.6045 62.6257 10.5885 62.8124 10.5565 62.9991C10.5245 63.1857 10.4738 63.3644 10.4045 63.5351L9.77245 63.3671C9.82579 63.2551 9.86845 63.1244 9.90045 62.9751C9.93245 62.8311 9.94845 62.6764 9.94845 62.5111C9.94845 62.0951 9.81779 61.7751 9.55645 61.5511C9.29512 61.3324 8.91379 61.2231 8.41245 61.2231C8.18845 61.2231 7.98312 61.2471 7.79645 61.2951C7.60979 61.3484 7.44979 61.4284 7.31645 61.5351C7.18312 61.6471 7.07912 61.7884 7.00445 61.9591C6.93512 62.1297 6.90045 62.3377 6.90045 62.5831C6.90045 62.7804 6.91912 62.9591 6.95645 63.1191C6.99379 63.2791 7.03379 63.4044 7.07645 63.4951L6.45245 63.5991C6.42579 63.5564 6.39912 63.4951 6.37245 63.4151C6.35112 63.3351 6.33245 63.2444 6.31645 63.1431C6.29512 63.0417 6.27912 62.9324 6.26845 62.8151C6.25245 62.7031 6.24445 62.5937 6.24445 62.4871ZM9.40445 65.1898C8.87645 65.1365 8.34845 65.0965 7.82045 65.0698C7.29779 65.0431 6.80445 65.0218 6.34045 65.0058L6.34045 64.2938C6.66579 64.3045 7.00445 64.3205 7.35645 64.3418C7.71379 64.3631 8.07112 64.3871 8.42845 64.4138C8.79112 64.4405 9.14579 64.4698 9.49245 64.5018C9.84445 64.5338 10.1805 64.5685 10.5005 64.6058L10.5005 65.2858C10.2231 65.4565 9.84179 65.6565 9.35645 65.8858C8.87645 66.1151 8.32179 66.3791 7.69245 66.6778C8.32179 66.9765 8.87645 67.2405 9.35645 67.4698C9.84179 67.6991 10.2231 67.8991 10.5005 68.0698L10.5005 68.7578C10.1805 68.7951 9.84445 68.8298 9.49245 68.8618C9.14579 68.8938 8.79112 68.9231 8.42845 68.9498C8.07112 68.9765 7.71379 69.0005 7.35645 69.0218C7.00445 69.0431 6.66579 69.0591 6.34045 69.0698L6.34045 68.3338C6.80445 68.3178 7.29779 68.2965 7.82045 68.2698C8.34845 68.2431 8.87645 68.2031 9.40445 68.1498C9.23912 68.0645 9.03912 67.9658 8.80445 67.8538C8.57512 67.7418 8.34045 67.6298 8.10045 67.5178C7.86045 67.4111 7.63112 67.3098 7.41245 67.2138C7.19379 67.1178 7.02045 67.0431 6.89245 66.9898L6.89245 66.3658C7.02579 66.3071 7.20179 66.2271 7.42045 66.1258C7.63912 66.0298 7.86845 65.9258 8.10845 65.8138C8.35379 65.7071 8.59112 65.5978 8.82045 65.4858C9.05512 65.3738 9.24979 65.2751 9.40445 65.1898Z" fill="black"/>
<path d="M4.35355 0.646447C4.15829 0.451184 3.84171 0.451184 3.64645 0.646447L0.464466 3.82843C0.269204 4.02369 0.269204 4.34027 0.464466 4.53553C0.659728 4.7308 0.976311 4.7308 1.17157 4.53553L4 1.70711L6.82843 4.53553C7.02369 4.7308 7.34027 4.7308 7.53553 4.53553C7.7308 4.34027 7.7308 4.02369 7.53553 3.82843L4.35355 0.646447ZM3.64644 84.3536C3.84171 84.5488 4.15829 84.5488 4.35355 84.3536L7.53553 81.1716C7.73079 80.9763 7.73079 80.6597 7.53553 80.4645C7.34027 80.2692 7.02369 80.2692 6.82842 80.4645L4 83.2929L1.17157 80.4645C0.976307 80.2692 0.659725 80.2692 0.464463 80.4645C0.2692 80.6597 0.2692 80.9763 0.464463 81.1716L3.64644 84.3536ZM3.5 1L3.5 84L4.5 84L4.5 1L3.5 1Z" fill="#FA522E"/>
</svg>
