<svg width="18" height="18" viewBox="0 0 18 18" fill="none" xmlns="http://www.w3.org/2000/svg">
<path fill-rule="evenodd" clip-rule="evenodd" d="M12.3117 17.6947C10.1237 17.6947 7.01131 17.5845 4.93569 17.5845C1.05371 17.5845 0 15.2883 0 12.3689C0 9.44947 0.0572439 6.2205 0.0572439 5.11378C0.0572439 1.83392 1.50954 0.0127211 5.10954 0.0127211C6.44099 0.0127211 11.4488 0 13.1534 0C16.429 0 18 1.35265 18 5.31307C18 6.29046 17.9279 8.12014 17.9279 13.1936C17.9279 16.3845 16.4205 17.6947 12.3117 17.6947ZM9.02544 4.2212C2.9152 4.2212 2.6205 13.5201 9.12933 13.5201C15.0742 13.5201 15.1124 4.2212 9.02544 4.2212ZM14.5484 2.3788C12.7823 2.3788 12.6975 5.0523 14.5802 5.0523C16.2975 5.04806 16.3102 2.3788 14.5484 2.3788Z" fill="black"/>
</svg>
